<svg viewBox="0 0 1300 600" xmlns="http://www.w3.org/2000/svg">
  <!-- 배경 및 스타일 정의 -->
  <defs>
    <linearGradient id="bg-gradient" x1="0%" y1="0%" x2="100%" y2="100%">
      <stop offset="0%" stop-color="#f5f7fa"/>
      <stop offset="100%" stop-color="#e4e8ed"/>
    </linearGradient>
    
    <linearGradient id="blue-gradient" x1="0%" y1="0%" x2="100%" y2="100%">
      <stop offset="0%" stop-color="#4263eb"/>
      <stop offset="100%" stop-color="#3b5bdb"/>
    </linearGradient>
    
    <linearGradient id="purple-gradient" x1="0%" y1="0%" x2="100%" y2="100%">
      <stop offset="0%" stop-color="#9775fa"/>
      <stop offset="100%" stop-color="#7950f2"/>
    </linearGradient>
    
    <linearGradient id="green-gradient" x1="0%" y1="0%" x2="100%" y2="100%">
      <stop offset="0%" stop-color="#20c997"/>
      <stop offset="100%" stop-color="#0ca678"/>
    </linearGradient>
    
    <linearGradient id="orange-gradient" x1="0%" y1="0%" x2="100%" y2="100%">
      <stop offset="0%" stop-color="#ffa94d"/>
      <stop offset="100%" stop-color="#fd7e14"/>
    </linearGradient>
    
    <linearGradient id="alert-gradient" x1="0%" y1="0%" x2="100%" y2="100%">
      <stop offset="0%" stop-color="#ff6b6b"/>
      <stop offset="100%" stop-color="#fa5252"/>
    </linearGradient>
    
    <linearGradient id="warning-gradient" x1="0%" y1="0%" x2="100%" y2="100%">
      <stop offset="0%" stop-color="#ffd43b"/>
      <stop offset="100%" stop-color="#fcc419"/>
    </linearGradient>
    
    <linearGradient id="teal-gradient" x1="0%" y1="0%" x2="100%" y2="100%">
      <stop offset="0%" stop-color="#3bc9db"/>
      <stop offset="100%" stop-color="#22b8cf"/>
    </linearGradient>
    
    <filter id="drop-shadow" x="-20%" y="-20%" width="140%" height="140%">
      <feDropShadow dx="0" dy="4" stdDeviation="4" flood-opacity="0.15"/>
    </filter>
    
    <filter id="soft-shadow" x="-10%" y="-10%" width="120%" height="120%">
      <feDropShadow dx="0" dy="2" stdDeviation="3" flood-opacity="0.1"/>
    </filter>
    
    <filter id="inner-shadow">
      <feOffset dx="0" dy="1"/>
      <feGaussianBlur stdDeviation="1"/>
      <feComposite operator="out" in="SourceGraphic"/>
      <feColorMatrix type="matrix" values="0 0 0 0 0   0 0 0 0 0   0 0 0 0 0   0 0 0 0.1 0"/>
      <feBlend mode="normal" in2="SourceGraphic" result="shadow"/>
    </filter>
    
    <!-- 아이콘 정의 -->
    <symbol id="home-icon" viewBox="0 0 24 24">
      <path d="M3 9l9-7 9 7v11a2 2 0 0 1-2 2H5a2 2 0 0 1-2-2z" fill="none" stroke="currentColor" stroke-width="2"/>
      <polyline points="9 22 9 12 15 12 15 22" fill="none" stroke="currentColor" stroke-width="2"/>
    </symbol>
    
    <symbol id="activity-icon" viewBox="0 0 24 24">
      <polyline points="22 12 18 12 15 21 9 3 6 12 2 12" fill="none" stroke="currentColor" stroke-width="2" stroke-linecap="round" stroke-linejoin="round"/>
    </symbol>
    
    <symbol id="alert-icon" viewBox="0 0 24 24">
      <path d="M18 8A6 6 0 0 0 6 8c0 7-3 9-3 9h18s-3-2-3-9" fill="none" stroke="currentColor" stroke-width="2" stroke-linecap="round" stroke-linejoin="round"/>
      <path d="M13.73 21a2 2 0 0 1-3.46 0" fill="none" stroke="currentColor" stroke-width="2" stroke-linecap="round" stroke-linejoin="round"/>
    </symbol>
    
    <symbol id="settings-icon" viewBox="0 0 24 24">
      <circle cx="12" cy="12" r="3" fill="none" stroke="currentColor" stroke-width="2"/>
      <path d="M19.4 15a1.65 1.65 0 0 0 .33 1.82l.06.06a2 2 0 0 1 0 2.83 2 2 0 0 1-2.83 0l-.06-.06a1.65 1.65 0 0 0-1.82-.33 1.65 1.65 0 0 0-1 1.51V21a2 2 0 0 1-2 2 2 2 0 0 1-2-2v-.09A1.65 1.65 0 0 0 9 19.4a1.65 1.65 0 0 0-1.82.33l-.06.06a2 2 0 0 1-2.83 0 2 2 0 0 1 0-2.83l.06-.06a1.65 1.65 0 0 0 .33-1.82 1.65 1.65 0 0 0-1.51-1H3a2 2 0 0 1-2-2 2 2 0 0 1 2-2h.09A1.65 1.65 0 0 0 4.6 9a1.65 1.65 0 0 0-.33-1.82l-.06-.06a2 2 0 0 1 0-2.83 2 2 0 0 1 2.83 0l.06.06a1.65 1.65 0 0 0 1.82.33H9a1.65 1.65 0 0 0 1-1.51V3a2 2 0 0 1 2-2 2 2 0 0 1 2 2v.09a1.65 1.65 0 0 0 1 1.51 1.65 1.65 0 0 0 1.82-.33l.06-.06a2 2 0 0 1 2.83 0 2 2 0 0 1 0 2.83l-.06.06a1.65 1.65 0 0 0-.33 1.82V9a1.65 1.65 0 0 0 1.51 1H21a2 2 0 0 1 2 2 2 2 0 0 1-2 2h-.09a1.65 1.65 0 0 0-1.51 1z" fill="none" stroke="currentColor" stroke-width="2"/>
    </symbol>
    
    <symbol id="chart-icon" viewBox="0 0 24 24">
      <rect x="2" y="12" width="4" height="8" fill="none" stroke="currentColor" stroke-width="2"/>
      <rect x="10" y="8" width="4" height="12" fill="none" stroke="currentColor" stroke-width="2"/>
      <rect x="18" y="4" width="4" height="16" fill="none" stroke="currentColor" stroke-width="2"/>
    </symbol>
    
    <symbol id="check-icon" viewBox="0 0 24 24">
      <path d="M20 6L9 17l-5-5" fill="none" stroke="currentColor" stroke-width="2" stroke-linecap="round" stroke-linejoin="round"/>
    </symbol>
    
    <symbol id="user-icon" viewBox="0 0 24 24">
      <path d="M20 21v-2a4 4 0 0 0-4-4H8a4 4 0 0 0-4 4v2" fill="none" stroke="currentColor" stroke-width="2"/>
      <circle cx="12" cy="7" r="4" fill="none" stroke="currentColor" stroke-width="2"/>
    </symbol>
    
    <symbol id="calendar-icon" viewBox="0 0 24 24">
      <rect x="3" y="4" width="18" height="18" rx="2" ry="2" fill="none" stroke="currentColor" stroke-width="2"/>
      <line x1="16" y1="2" x2="16" y2="6" stroke="currentColor" stroke-width="2"/>
      <line x1="8" y1="2" x2="8" y2="6" stroke="currentColor" stroke-width="2"/>
      <line x1="3" y1="10" x2="21" y2="10" stroke="currentColor" stroke-width="2"/>
    </symbol>
    
    <symbol id="report-icon" viewBox="0 0 24 24">
      <path d="M14 2H6a2 2 0 0 0-2 2v16a2 2 0 0 0 2 2h12a2 2 0 0 0 2-2V8z" fill="none" stroke="currentColor" stroke-width="2"/>
      <polyline points="14 2 14 8 20 8" fill="none" stroke="currentColor" stroke-width="2"/>
      <line x1="16" y1="13" x2="8" y2="13" stroke="currentColor" stroke-width="2"/>
      <line x1="16" y1="17" x2="8" y2="17" stroke="currentColor" stroke-width="2"/>
      <polyline points="10 9 9 9 8 9" fill="none" stroke="currentColor" stroke-width="2"/>
    </symbol>
    
    <symbol id="battery-icon" viewBox="0 0 24 24">
      <rect x="1" y="6" width="18" height="12" rx="2" ry="2" fill="none" stroke="currentColor" stroke-width="2"/>
      <line x1="23" y1="13" x2="23" y2="11" stroke="currentColor" stroke-width="2"/>
    </symbol>
    
    <symbol id="database-icon" viewBox="0 0 24 24">
      <ellipse cx="12" cy="5" rx="9" ry="3" fill="none" stroke="currentColor" stroke-width="2"/>
      <path d="M21 12c0 1.66-4 3-9 3s-9-1.34-9-3" fill="none" stroke="currentColor" stroke-width="2"/>
      <path d="M3 5v14c0 1.66 4 3 9 3s9-1.34 9-3V5" fill="none" stroke="currentColor" stroke-width="2"/>
    </symbol>
    
    <symbol id="threshold-icon" viewBox="0 0 24 24">
      <line x1="4" y1="21" x2="4" y2="14" stroke="currentColor" stroke-width="2"/>
      <line x1="4" y1="10" x2="4" y2="3" stroke="currentColor" stroke-width="2"/>
      <line x1="12" y1="21" x2="12" y2="12" stroke="currentColor" stroke-width="2"/>
      <line x1="12" y1="8" x2="12" y2="3" stroke="currentColor" stroke-width="2"/>
      <line x1="20" y1="21" x2="20" y2="16" stroke="currentColor" stroke-width="2"/>
      <line x1="20" y1="12" x2="20" y2="3" stroke="currentColor" stroke-width="2"/>
      <line x1="1" y1="14" x2="7" y2="14" stroke="currentColor" stroke-width="2"/>
      <line x1="9" y1="8" x2="15" y2="8" stroke="currentColor" stroke-width="2"/>
      <line x1="17" y1="16" x2="23" y2="16" stroke="currentColor" stroke-width="2"/>
    </symbol>
    
    <symbol id="users-icon" viewBox="0 0 24 24">
      <path d="M17 21v-2a4 4 0 0 0-4-4H5a4 4 0 0 0-4 4v2" fill="none" stroke="currentColor" stroke-width="2"/>
      <circle cx="9" cy="7" r="4" fill="none" stroke="currentColor" stroke-width="2"/>
      <path d="M23 21v-2a4 4 0 0 0-3-3.87" fill="none" stroke="currentColor" stroke-width="2"/>
      <path d="M16 3.13a4 4 0 0 1 0 7.75" fill="none" stroke="currentColor" stroke-width="2"/>
    </symbol>
    
    <symbol id="update-icon" viewBox="0 0 24 24">
      <path d="M23 4v6h-6" fill="none" stroke="currentColor" stroke-width="2"/>
      <path d="M1 20v-6h6" fill="none" stroke="currentColor" stroke-width="2"/>
      <path d="M3.51 9a9 9 0 0 1 14.85-3.36L23 10M1 14l4.64 4.36A9 9 0 0 0 20.49 15" fill="none" stroke="currentColor" stroke-width="2"/>
    </symbol>
  </defs>
  
  <!-- 배경 -->
  <rect width="1300" height="600" fill="url(#bg-gradient)" rx="10" ry="10"/>
  
  <!-- 제목 -->
  <g id="title">
    <text x="650" y="40" font-family="Arial, sans-serif" font-size="24" font-weight="bold" text-anchor="middle" fill="#212529">FallSense - 사용자 인터페이스</text>
    <text x="650" y="65" font-family="Arial, sans-serif" font-size="14" text-anchor="middle" fill="#495057">낙상·이상행동 감지 시스템의 모바일 앱 및 웹 대시보드 인터페이스</text>
  </g>
  
  <!-- 모바일 앱 (좌측 상단) -->
  <g id="mobile-app" transform="translate(50, 70)">
    <!-- 스마트폰 외형 -->
    <rect width="350" height="500" fill="#f8f9fa" stroke="#ced4da" stroke-width="2" rx="20" ry="20" filter="url(#drop-shadow)"/>
    <rect x="15" y="15" width="320" height="470" fill="#ffffff" stroke="#e9ecef" stroke-width="2" rx="15" ry="15"/>
    
    <!-- 앱 헤더 -->
    <rect x="15" y="15" width="320" height="60" fill="url(#blue-gradient)" rx="15" ry="15"/>
    <rect x="15" y="55" width="320" height="20" fill="url(#blue-gradient)"/>
    
    <text x="175" y="50" font-family="Arial, sans-serif" font-size="18" font-weight="bold" text-anchor="middle" fill="#ffffff">보호자 모바일 앱</text>
    
    <!-- 실시간 상태 영역 -->
    <g transform="translate(35, 85)">
      <rect width="280" height="140" fill="#ffffff" stroke="#e9ecef" stroke-width="1" rx="10" ry="10" filter="url(#soft-shadow)"/>
      
      <!-- 헤더 -->
      <text x="15" y="25" font-family="Arial, sans-serif" font-size="16" font-weight="bold" fill="#212529">실시간 상태</text>
      
      <!-- 상태 박스 -->
      <rect x="10" y="35" width="260" height="50" fill="#e6f7ee" stroke="#b2f2d0" stroke-width="1" rx="8" ry="8"/>
      
      <circle cx="30" cy="60" r="12" fill="#12b886">
        <animate attributeName="opacity" values="1;0.6;1" dur="2s" repeatCount="indefinite"/>
      </circle>
      <path d="M25 60 L28 63 L35 56" stroke="#ffffff" stroke-width="2" fill="none"/>
      
      <text x="85" y="57" font-family="Arial, sans-serif" font-size="14" font-weight="bold" fill="#087f5b">정상 활동 중</text>
      <text x="85" y="73" font-family="Arial, sans-serif" font-size="11" fill="#868e96">마지막 업데이트: 10분 전</text>
      
      <!-- 활동 지표 그리드 -->
      <g transform="translate(10, 95)">
        <rect width="125" height="35" fill="#f1f3f5" stroke="#dee2e6" stroke-width="1" rx="6" ry="6"/>
        <text x="55" y="22" font-family="Arial, sans-serif" font-size="12" text-anchor="middle" fill="#495057">활동 정상</text>
        <circle cx="25" cy="17" r="7" fill="#339af0"/>
        <path d="M21 17 L25 21 L29 17 L25 13 Z" stroke="#339af0" stroke-width="1" fill="#339af0"/>
      </g>
      
      <g transform="translate(145, 95)">
        <rect width="125" height="35" fill="#f1f3f5" stroke="#dee2e6" stroke-width="1" rx="6" ry="6"/>
        <text x="55" y="22" font-family="Arial, sans-serif" font-size="12" text-anchor="middle" fill="#495057">수면 7.5시간</text>
        <circle cx="25" cy="17" r="7" fill="#339af0"/>
        <path d="M25 12 A5 5 0 0 1 25 22" stroke="#339af0" stroke-width="1.5" fill="none"/>
      </g>
    </g>
    
    <!-- 알림 이력 영역 -->
    <g transform="translate(35, 235)">
      <rect width="280" height="180" fill="#ffffff" stroke="#e9ecef" stroke-width="1" rx="10" ry="10" filter="url(#soft-shadow)"/>
      
      <!-- 헤더 -->
      <text x="15" y="25" font-family="Arial, sans-serif" font-size="16" font-weight="bold" fill="#212529">알림 이력</text>
      
      <!-- 알림 목록 -->
      <g transform="translate(10, 35)">
        <rect width="260" height="60" fill="#fff5f5" stroke="#ffc9c9" stroke-width="1" rx="8" ry="8"/>
        
        <circle cx="30" cy="30" r="12" fill="url(#alert-gradient)">
          <animate attributeName="opacity" values="1;0.6;1" dur="1.5s" repeatCount="indefinite"/>
        </circle>
        <text x="30" y="34" font-family="Arial, sans-serif" font-size="11" font-weight="bold" text-anchor="middle" fill="#ffffff">!</text>
        
        <text x="95" y="22" font-family="Arial, sans-serif" font-size="14" font-weight="bold" fill="#e03131">화장실 낙상 감지</text>
        <text x="95" y="38" font-family="Arial, sans-serif" font-size="11" fill="#868e96">오늘 08:23 AM</text>
        <text x="95" y="52" font-family="Arial, sans-serif" font-size="10" fill="#495057">조치: 보호자 통화 완료</text>
      </g>
      
      <g transform="translate(10, 105)">
        <rect width="260" height="60" fill="#fff9db" stroke="#ffec99" stroke-width="1" rx="8" ry="8"/>
        
        <circle cx="30" cy="30" r="12" fill="url(#warning-gradient)"/>
        <text x="30" y="34" font-family="Arial, sans-serif" font-size="11" font-weight="bold" text-anchor="middle" fill="#ffffff">!</text>
        
        <text x="95" y="22" font-family="Arial, sans-serif" font-size="14" font-weight="bold" fill="#e67700">장시간 움직임 없음</text>
        <text x="95" y="38" font-family="Arial, sans-serif" font-size="11" fill="#868e96">어제 14:05 PM</text>
        <text x="95" y="52" font-family="Arial, sans-serif" font-size="10" fill="#495057">조치: 복지사 방문 확인</text>
      </g>
    </g>
    
    <!-- 하단 네비게이션 바 -->
    <rect x="15" y="425" width="320" height="60" fill="#f1f3f5" rx="0" ry="0"/>
    <rect x="15" y="425" width="320" height="60" fill="#f1f3f5" rx="0 0 15 15" ry="0 0 15 15"/>
    
    <!-- 네비게이션 아이콘들 -->
    <g transform="translate(55, 455)" class="nav-icon">
      <circle cx="0" cy="0" r="20" fill="#4263eb" fill-opacity="0.1"/>
      <use href="#home-icon" width="20" height="20" x="-10" y="-10" stroke="#4263eb"/>
      <text x="0" y="25" font-family="Arial, sans-serif" font-size="11" text-anchor="middle" fill="#4263eb">홈</text>
    </g>
    
    <g transform="translate(130, 455)" class="nav-icon">
      <use href="#activity-icon" width="20" height="20" x="-10" y="-10" stroke="#adb5bd"/>
      <text x="0" y="25" font-family="Arial, sans-serif" font-size="11" text-anchor="middle" fill="#868e96">활동</text>
    </g>
    
    <g transform="translate(205, 455)" class="nav-icon">
      <use href="#alert-icon" width="20" height="20" x="-10" y="-10" stroke="#adb5bd"/>
      <text x="0" y="25" font-family="Arial, sans-serif" font-size="11" text-anchor="middle" fill="#868e96">알림</text>
    </g>
    
    <g transform="translate(280, 455)" class="nav-icon">
      <use href="#settings-icon" width="20" height="20" x="-10" y="-10" stroke="#adb5bd"/>
      <text x="0" y="25" font-family="Arial, sans-serif" font-size="11" text-anchor="middle" fill="#868e96">설정</text>
    </g>
    
    <!-- 낙상 감지 알림 화면 (오버레이) -->
    <g id="fallsense-alert" transform="translate(15, 15)" opacity="0" class="alert-popup">
      <animate id="alertAnimation" attributeName="opacity" from="0" to="0" dur="0.3s" fill="freeze" begin="5s"/>
      <rect width="320" height="410" fill="rgba(0,0,0,0.5)" rx="15" ry="15"/>
      
      <g transform="translate(40, 120)">
        <rect width="240" height="200" fill="#ffffff" rx="15" ry="15" filter="url(#drop-shadow)"/>
        
        <g transform="translate(120, 50)">
          <circle cx="0" cy="0" r="35" fill="url(#alert-gradient)">
            <animate attributeName="r" values="35;40;35" dur="1s" repeatCount="indefinite"/>
          </circle>
          <text x="0" y="10" font-family="Arial, sans-serif" font-size="25" font-weight="bold" text-anchor="middle" fill="#ffffff">!</text>
        </g>
        
        <text x="120" y="110" font-family="Arial, sans-serif" font-size="18" font-weight="bold" text-anchor="middle" fill="#e03131">응급 상황 감지</text>
        <text x="120" y="130" font-family="Arial, sans-serif" font-size="14" text-anchor="middle" fill="#495057">화장실에서 낙상이 감지되었습니다</text>
        <text x="120" y="150" font-family="Arial, sans-serif" font-size="12" text-anchor="middle" fill="#868e96">08:23 AM</text>
        
        <rect x="30" y="160" width="180" height="30" fill="#fa5252" rx="15" ry="15"/>
        <text x="120" y="180" font-family="Arial, sans-serif" font-size="14" font-weight="bold" text-anchor="middle" fill="#ffffff">확인 및 조치하기</text>
      </g>
    </g>
  </g>
  
  <!-- 복지사 웹 대시보드 (중앙) -->
  <g id="web-dashboard" transform="translate(450, 70)">
    <!-- 웹 브라우저 외형 -->
    <rect width="400" height="500" fill="#f8f9fa" stroke="#ced4da" stroke-width="2" rx="10" ry="10" filter="url(#drop-shadow)"/>
    <rect x="10" y="10" width="380" height="480" fill="#ffffff" stroke="#e9ecef" stroke-width="1" rx="5" ry="5"/>
    
    <!-- 웹 헤더 -->
    <rect x="10" y="10" width="380" height="60" fill="url(#purple-gradient)" rx="5" ry="5"/>
    <rect x="10" y="50" width="380" height="20" fill="url(#purple-gradient)"/>
    
    <text x="200" y="45" font-family="Arial, sans-serif" font-size="18" font-weight="bold" text-anchor="middle" fill="#ffffff">복지사 웹 대시보드</text>
    
    <!-- 대시보드 헤더 -->
    <g transform="translate(20, 80)">
      <rect width="360" height="40" fill="#f8f9fa" stroke="#dee2e6" stroke-width="1" rx="5" ry="5"/>
      <text x="20" y="25" font-family="Arial, sans-serif" font-size="14" font-weight="bold" fill="#212529">홍길동 님 모니터링 대시보드</text>
      
      <!-- 기간 선택 탭 -->
      <g transform="translate(190, 7)">
        <rect width="50" height="25" fill="#c3fae8" stroke="#96f2d7" stroke-width="1" rx="12" ry="12"/>
        <text x="25" y="17" font-family="Arial, sans-serif" font-size="11" font-weight="bold" text-anchor="middle" fill="#0ca678">실시간</text>
      </g>
      
      <g transform="translate(245, 7)">
        <rect width="35" height="25" fill="#f1f3f5" stroke="#dee2e6" stroke-width="1" rx="12" ry="12"/>
        <text x="17" y="17" font-family="Arial, sans-serif" font-size="11" text-anchor="middle" fill="#495057">일간</text>
      </g>
      
      <g transform="translate(285, 7)">
        <rect width="35" height="25" fill="#f1f3f5" stroke="#dee2e6" stroke-width="1" rx="12" ry="12"/>
        <text x="17" y="17" font-family="Arial, sans-serif" font-size="11" text-anchor="middle" fill="#495057">주간</text>
      </g>
      
      <g transform="translate(325, 7)">
        <rect width="35" height="25" fill="#f1f3f5" stroke="#dee2e6" stroke-width="1" rx="12" ry="12"/>
        <text x="17" y="17" font-family="Arial, sans-serif" font-size="11" text-anchor="middle" fill="#495057">월간</text>
      </g>
    </g>
    
    <!-- 주요 지표 영역 -->
    <g transform="translate(20, 130)">
      <rect width="110" height="90" fill="#e7f5ff" stroke="#74c0fc" stroke-width="1" rx="8" ry="8" filter="url(#soft-shadow)"/>
      <text x="55" y="30" font-family="Arial, sans-serif" font-size="12" font-weight="bold" text-anchor="middle" fill="#1864ab">일일 활동 시간</text>
      <text x="55" y="60" font-family="Arial, sans-serif" font-size="20" font-weight="bold" text-anchor="middle" fill="#1864ab">5.2 시간</text>
      <text x="55" y="80" font-family="Arial, sans-serif" font-size="10" text-anchor="middle" fill="#495057">전일 대비 +0.5시간</text>
    </g>
    
    <g transform="translate(145, 130)">
      <rect width="110" height="90" fill="#e6fcf5" stroke="#63e6be" stroke-width="1" rx="8" ry="8" filter="url(#soft-shadow)"/>
      <text x="55" y="30" font-family="Arial, sans-serif" font-size="12" font-weight="bold" text-anchor="middle" fill="#087f5b">수면 품질</text>
      <text x="55" y="60" font-family="Arial, sans-serif" font-size="20" font-weight="bold" text-anchor="middle" fill="#087f5b">양호</text>
      <text x="55" y="80" font-family="Arial, sans-serif" font-size="10" text-anchor="middle" fill="#495057">7.5시간 / 3회 기상</text>
    </g>
    
    <g transform="translate(270, 130)">
      <rect width="110" height="90" fill="#f3f0ff" stroke="#b197fc" stroke-width="1" rx="8" ry="8" filter="url(#soft-shadow)"/>
      <text x="55" y="30" font-family="Arial, sans-serif" font-size="12" font-weight="bold" text-anchor="middle" fill="#5f3dc4">화장실 사용</text>
      <text x="55" y="60" font-family="Arial, sans-serif" font-size="20" font-weight="bold" text-anchor="middle" fill="#5f3dc4">4회</text>
      <text x="55" y="80" font-family="Arial, sans-serif" font-size="10" text-anchor="middle" fill="#495057">평균 대비 정상</text>
    </g>
    
    <!-- 생활 패턴 차트 영역 -->
    <g transform="translate(20, 230)">
      <rect width="360" height="140" fill="#f8f9fa" stroke="#dee2e6" stroke-width="1" rx="8" ry="8" filter="url(#soft-shadow)"/>
      <text x="20" y="30" font-family="Arial, sans-serif" font-size="14" font-weight="bold" fill="#212529">일일 활동 패턴</text>
      
      <!-- 차트 영역 -->
      <rect x="10" y="40" width="340" height="90" fill="#ffffff" stroke="#e9ecef" stroke-width="1" rx="4" ry="4"/>
      
      <!-- 24시간을 나타내는 막대 그래프 -->
      <g transform="translate(20, 122)">
        <!-- 0시 - 5시 (수면 시간) -->
        <rect x="0" y="-8" width="10" height="8" fill="#4dabf7" rx="1" ry="1"/>
        <rect x="12" y="-13" width="10" height="13" fill="#4dabf7" rx="1" ry="1"/>
        <rect x="24" y="-5" width="10" height="5" fill="#4dabf7" rx="1" ry="1"/>
        <rect x="36" y="-3" width="10" height="3" fill="#4dabf7" rx="1" ry="1"/>
        <rect x="48" y="-6" width="10" height="6" fill="#4dabf7" rx="1" ry="1"/>
        <rect x="60" y="-15" width="10" height="15" fill="#4dabf7" rx="1" ry="1"/>
        
        <!-- 6시 - 17시 (활동 시간) -->
        <rect x="72" y="-25" width="10" height="25" fill="#1971c2" rx="1" ry="1"/>
        <rect x="84" y="-35" width="10" height="35" fill="#1971c2" rx="1" ry="1"/>
        <rect x="96" y="-45" width="10" height="45" fill="#1971c2" rx="1" ry="1"/>
        <rect x="108" y="-35" width="10" height="35" fill="#1971c2" rx="1" ry="1"/>
        <rect x="120" y="-25" width="10" height="25" fill="#1971c2" rx="1" ry="1"/>
        <rect x="132" y="-20" width="10" height="20" fill="#1971c2" rx="1" ry="1"/>
        <rect x="144" y="-40" width="10" height="40" fill="#1971c2" rx="1" ry="1"/>
        <rect x="156" y="-43" width="10" height="43" fill="#1971c2" rx="1" ry="1"/>
        <rect x="168" y="-35" width="10" height="35" fill="#1971c2" rx="1" ry="1"/>
        <rect x="180" y="-30" width="10" height="30" fill="#1971c2" rx="1" ry="1"/>
        <rect x="192" y="-20" width="10" height="20" fill="#1971c2" rx="1" ry="1"/>
        
        <!-- 18시 - 23시 (저녁 시간) -->
        <rect x="204" y="-15" width="10" height="15" fill="#4dabf7" rx="1" ry="1"/>
        <rect x="216" y="-25" width="10" height="25" fill="#4dabf7" rx="1" ry="1"/>
        <rect x="228" y="-35" width="10" height="35" fill="#4dabf7" rx="1" ry="1"/>
        <rect x="240" y="-20" width="10" height="20" fill="#4dabf7" rx="1" ry="1"/>
        <rect x="252" y="-12" width="10" height="12" fill="#4dabf7" rx="1" ry="1"/>
        <rect x="264" y="-8" width="10" height="8" fill="#4dabf7" rx="1" ry="1"/>
        <rect x="276" y="-5" width="10" height="5" fill="#4dabf7" rx="1" ry="1"/>
        
        <!-- 그래프 하단 라벨 -->
        <text x="0" y="10" font-family="Arial, sans-serif" font-size="9" fill="#868e96">00시</text>
        <text x="66" y="10" font-family="Arial, sans-serif" font-size="9" fill="#868e96">06시</text>
        <text x="132" y="10" font-family="Arial, sans-serif" font-size="9" fill="#868e96">12시</text>
        <text x="198" y="10" font-family="Arial, sans-serif" font-size="9" fill="#868e96">18시</text>
        <text x="264" y="10" font-family="Arial, sans-serif" font-size="9" fill="#868e96">24시</text>
      </g>
      
      <!-- 범례 -->
      <rect x="270" y="42" width="10" height="10" fill="#1971c2" rx="2" ry="2"/>
      <text x="285" y="50" font-family="Arial, sans-serif" font-size="9" fill="#495057">활동</text>
      
      <rect x="270" y="57" width="10" height="10" fill="#4dabf7" rx="2" ry="2"/>
      <text x="285" y="65" font-family="Arial, sans-serif" font-size="9" fill="#495057">수면/휴식</text>
    </g>
    
    <!-- 알림 이력 목록 -->
    <g transform="translate(20, 380)">
      <rect width="360" height="100" fill="#ffffff" stroke="#dee2e6" stroke-width="1" rx="8" ry="8" filter="url(#soft-shadow)"/>
      <text x="20" y="25" font-family="Arial, sans-serif" font-size="14" font-weight="bold" fill="#212529">최근 알림 이력</text>
      <text x="330" y="25" font-family="Arial, sans-serif" font-size="11" fill="#339af0">모두 보기</text>
      
      <!-- 알림 항목 1 -->
      <g transform="translate(10, 35)">
        <rect width="340" height="25" fill="#f8f9fa" rx="3" ry="3"/>
        <rect width="3" height="25" fill="#fa5252"/>
        
        <text x="15" y="16" font-family="Arial, sans-serif" font-size="12" font-weight="bold" fill="#212529">화장실 낙상 감지</text>
        <text x="165" y="16" font-family="Arial, sans-serif" font-size="10" fill="#868e96">오늘 08:23 AM</text>
        
        <rect x="270" y="5" width="60" height="16" fill="#e6fcf5" stroke="#63e6be" stroke-width="1" rx="8" ry="8"/>
        <text x="300" y="16" font-family="Arial, sans-serif" font-size="9" font-weight="bold" text-anchor="middle" fill="#0ca678">조치완료</text>
      </g>
      
      <!-- 알림 항목 2 -->
      <g transform="translate(10, 65)">
        <rect width="340" height="25" fill="#f8f9fa" rx="3" ry="3"/>
        <rect width="3" height="25" fill="#fcc419"/>
        
        <text x="15" y="16" font-family="Arial, sans-serif" font-size="12" font-weight="bold" fill="#212529">장시간 움직임 없음</text>
        <text x="165" y="16" font-family="Arial, sans-serif" font-size="10" fill="#868e96">어제 14:05 PM</text>
        
        <rect x="270" y="5" width="60" height="16" fill="#e6fcf5" stroke="#63e6be" stroke-width="1" rx="8" ry="8"/>
        <text x="300" y="16" font-family="Arial, sans-serif" font-size="9" font-weight="bold" text-anchor="middle" fill="#0ca678">조치완료</text>
      </g>
    </g>
    
    <!-- 하단 네비게이션 메뉴 -->
    
 </g>

  <!-- 관리자용 시스템 설정 (오른쪽) -->
  <g id="admin-dashboard" transform="translate(900, 70)">
    <!-- 웹 브라우저 외형 -->
    <rect width="350" height="500" fill="#f8f9fa" stroke="#ced4da" stroke-width="2" rx="10" ry="10" filter="url(#drop-shadow)"/>
    <rect x="10" y="10" width="330" height="480" fill="#ffffff" stroke="#e9ecef" stroke-width="1" rx="5" ry="5"/>
    
    <!-- 웹 헤더 -->
    <rect x="10" y="10" width="330" height="60" fill="url(#teal-gradient)" rx="5" ry="5"/>
    <rect x="10" y="50" width="330" height="20" fill="url(#teal-gradient)"/>
    
    <text x="175" y="45" font-family="Arial, sans-serif" font-size="18" font-weight="bold" text-anchor="middle" fill="#ffffff">관리자용 시스템 설정</text>
    
    <!-- 시스템 상태 요약 -->
    <g transform="translate(20, 80)">
      <rect width="310" height="60" fill="#f3fafd" stroke="#b1deef" stroke-width="1" rx="5" ry="5"/>
      <text x="20" y="25" font-family="Arial, sans-serif" font-size="14" font-weight="bold" fill="#0b7285">시스템 상태</text>
      <text x="20" y="45" font-family="Arial, sans-serif" font-size="12" fill="#495057">총 센서: 28 | 온라인: 27 | 오프라인: 1 | 배터리 부족: 3</text>
    </g>
    
    <!-- 센서 상태 및 배터리 관리 -->
    <g transform="translate(20, 150)">
      <rect width="310" height="160" fill="#ffffff" stroke="#dee2e6" stroke-width="1" rx="8" ry="8" filter="url(#soft-shadow)"/>
      <text x="20" y="25" font-family="Arial, sans-serif" font-size="14" font-weight="bold" fill="#212529">센서 상태 및 배터리 관리</text>
      
      <!-- 센서 모니터링 테이블 -->
      <rect x="10" y="35" width="290" height="115" fill="#f8f9fa" stroke="#e9ecef" stroke-width="1" rx="5" ry="5"/>
      
      <!-- 테이블 헤더 -->
      <rect x="10" y="35" width="290" height="25" fill="#e6fcf5" rx="5" ry="5"/>
      <text x="30" y="52" font-family="Arial, sans-serif" font-size="11" font-weight="bold" fill="#0ca678">센서 ID</text>
      <text x="110" y="52" font-family="Arial, sans-serif" font-size="11" font-weight="bold" fill="#0ca678">위치</text>
      <text x="180" y="52" font-family="Arial, sans-serif" font-size="11" font-weight="bold" fill="#0ca678">배터리</text>
      <text x="260" y="52" font-family="Arial, sans-serif" font-size="11" font-weight="bold" fill="#0ca678">상태</text>
      
      <!-- 센서 항목 1 -->
      <g transform="translate(10, 60)">
        <rect width="290" height="25" fill="#ffffff" rx="0" ry="0"/>
        <text x="30" y="17" font-family="Arial, sans-serif" font-size="11" fill="#495057">S001</text>
        <text x="110" y="17" font-family="Arial, sans-serif" font-size="11" fill="#495057">침실</text>
        
        <!-- 배터리 표시 -->
        <rect x="180" y="7" width="40" height="10" fill="#ffffff" stroke="#dee2e6" stroke-width="1" rx="2" ry="2"/>
        <rect x="180" y="7" width="32" height="10" fill="#51cf66" rx="2" ry="2"/>
        <text x="230" y="17" font-family="Arial, sans-serif" font-size="10" fill="#495057">80%</text>
        
        <!-- 상태 표시 -->
        <rect x="250" y="7" width="30" height="14" fill="#e6fcf5" stroke="#63e6be" stroke-width="1" rx="7" ry="7"/>
        <text x="265" y="17" font-family="Arial, sans-serif" font-size="9" font-weight="bold" text-anchor="middle" fill="#0ca678">정상</text>
      </g>
      
      <!-- 센서 항목 2 -->
      <g transform="translate(10, 85)">
        <rect width="290" height="25" fill="#f8f9fa" rx="0" ry="0"/>
        <text x="30" y="17" font-family="Arial, sans-serif" font-size="11" fill="#495057">S002</text>
        <text x="110" y="17" font-family="Arial, sans-serif" font-size="11" fill="#495057">화장실</text>
        
        <!-- 배터리 표시 (부족) -->
        <rect x="180" y="7" width="40" height="10" fill="#ffffff" stroke="#dee2e6" stroke-width="1" rx="2" ry="2"/>
        <rect x="180" y="7" width="8" height="10" fill="#ff6b6b" rx="2" ry="2"/>
        <text x="230" y="17" font-family="Arial, sans-serif" font-size="10" fill="#ff6b6b">20%</text>
        
        <!-- 상태 표시 -->
        <rect x="250" y="7" width="40" height="14" fill="#fff5f5" stroke="#ffa8a8" stroke-width="1" rx="7" ry="7"/>
        <text x="270" y="17" font-family="Arial, sans-serif" font-size="9" font-weight="bold" text-anchor="middle" fill="#e03131">배터리 부족</text>
      </g>
      
      <!-- 센서 항목 3 -->
      <g transform="translate(10, 110)">
        <rect width="290" height="25" fill="#ffffff" rx="0" ry="0"/>
        <text x="30" y="17" font-family="Arial, sans-serif" font-size="11" fill="#495057">S003</text>
        <text x="110" y="17" font-family="Arial, sans-serif" font-size="11" fill="#495057">거실</text>
        
        <!-- 배터리 표시 -->
        <rect x="180" y="7" width="40" height="10" fill="#ffffff" stroke="#dee2e6" stroke-width="1" rx="2" ry="2"/>
        <rect x="180" y="7" width="30" height="10" fill="#51cf66" rx="2" ry="2"/>
        <text x="230" y="17" font-family="Arial, sans-serif" font-size="10" fill="#495057">75%</text>
        
        <!-- 상태 표시 -->
        <rect x="250" y="7" width="30" height="14" fill="#e6fcf5" stroke="#63e6be" stroke-width="1" rx="7" ry="7"/>
        <text x="265" y="17" font-family="Arial, sans-serif" font-size="9" font-weight="bold" text-anchor="middle" fill="#0ca678">정상</text>
      </g>
    </g>
    
    <!-- 알림 조건 및 임계값 설정 -->
    <g transform="translate(20, 320)">
      <rect width="310" height="70" fill="#ffffff" stroke="#dee2e6" stroke-width="1" rx="8" ry="8" filter="url(#soft-shadow)"/>
      <text x="20" y="25" font-family="Arial, sans-serif" font-size="14" font-weight="bold" fill="#212529">알림 임계값 설정</text>
      
      <!-- 임계값 설정 슬라이더 -->
      <rect x="20" y="35" width="200" height="5" fill="#e9ecef" rx="2.5" ry="2.5"/>
      <circle cx="120" cy="37.5" r="8" fill="#339af0" stroke="#ffffff" stroke-width="2"/>
      <text x="240" y="40" font-family="Arial, sans-serif" font-size="12" fill="#495057">민감도: 보통</text>
      
      <!-- 설정 타입 선택 -->
      <rect x="20" y="50" width="70" height="15" fill="#e7f5ff" stroke="#74c0fc" stroke-width="1" rx="7.5" ry="7.5"/>
      <text x="55" y="61" font-family="Arial, sans-serif" font-size="9" font-weight="bold" text-anchor="middle" fill="#339af0">낙상 감지</text>
      
      <rect x="95" y="50" width="70" height="15" fill="#f1f3f5" stroke="#dee2e6" stroke-width="1" rx="7.5" ry="7.5"/>
      <text x="130" y="61" font-family="Arial, sans-serif" font-size="9" text-anchor="middle" fill="#495057">움직임 부재</text>
      
      <rect x="170" y="50" width="70" height="15" fill="#f1f3f5" stroke="#dee2e6" stroke-width="1" rx="7.5" ry="7.5"/>
      <text x="205" y="61" font-family="Arial, sans-serif" font-size="9" text-anchor="middle" fill="#495057">배터리 경고</text>
    </g>
    
    <!-- 사용자 계정 관리 -->
    <g transform="translate(20, 400)">
      <rect width="150" height="80" fill="#ffffff" stroke="#dee2e6" stroke-width="1" rx="8" ry="8" filter="url(#soft-shadow)"/>
      <text x="20" y="25" font-family="Arial, sans-serif" font-size="14" font-weight="bold" fill="#212529">사용자 계정</text>
      
      <text x="20" y="45" font-family="Arial, sans-serif" font-size="12" fill="#495057">복지사: 9</text>
      <text x="20" y="65" font-family="Arial, sans-serif" font-size="12" fill="#495057">보호자: 23</text>
      
      <rect x="100" y="50" width="40" height="20" fill="#339af0" rx="10" ry="10"/>
      <text x="120" y="64" font-family="Arial, sans-serif" font-size="11" font-weight="bold" text-anchor="middle" fill="#ffffff">관리</text>
    </g>
    
    <!-- 데이터 백업 및 복원 -->
    <g transform="translate(180, 400)">
      <rect width="150" height="80" fill="#ffffff" stroke="#dee2e6" stroke-width="1" rx="8" ry="8" filter="url(#soft-shadow)"/>
      <text x="20" y="25" font-family="Arial, sans-serif" font-size="14" font-weight="bold" fill="#212529">데이터 관리</text>
      
      <text x="20" y="45" font-family="Arial, sans-serif" font-size="11" fill="#495057">최근 백업: 2025.05.12</text>
      
      <rect x="20" y="55" width="55" height="20" fill="#20c997" rx="10" ry="10"/>
      <text x="47" y="69" font-family="Arial, sans-serif" font-size="10" font-weight="bold" text-anchor="middle" fill="#ffffff">백업</text>
      
      <rect x="85" y="55" width="55" height="20" fill="#f8f9fa" stroke="#ced4da" stroke-width="1" rx="10" ry="10"/>
      <text x="112" y="69" font-family="Arial, sans-serif" font-size="10" font-weight="bold" text-anchor="middle" fill="#495057">복원</text>
    </g>
    
    <!-- 하단 네비게이션 -->
    </g>
   
  <!-- 낙상 감지 시나리오 흐름 -->
 
  
  <!-- 애니메이션 스크립트 -->
  <script type="text/javascript">
    setTimeout(function() {
      document.getElementById('alertAnimation').setAttribute('from', '0');
      document.getElementById('alertAnimation').setAttribute('to', '1');
    }, 5000);
  </script>

  <!-- 접근성 정보 -->
  <title>FallSense 사용자 인터페이스</title>
  <desc>낙상·이상행동 감지 센서 기반 노인 안전관리 시스템의 모바일 앱, 웹 대시보드 및 관리자용 시스템 설정 인터페이스를 보여주는 다이어그램입니다.</desc>
</svg>
