<svg viewBox="0 0 800 500" xmlns="http://www.w3.org/2000/svg">
  <!-- 배경 스타일 및 그라데이션 정의 -->
  <defs>
    <linearGradient id="bg-gradient" x1="0%" y1="0%" x2="100%" y2="100%">
      <stop offset="0%" stop-color="#f5f7fa"/>
      <stop offset="100%" stop-color="#e4e8ed"/>
    </linearGradient>
    
    <linearGradient id="blue-gradient" x1="0%" y1="0%" x2="100%" y2="100%">
      <stop offset="0%" stop-color="#4263eb"/>
      <stop offset="100%" stop-color="#3b5bdb"/>
    </linearGradient>
    
    <linearGradient id="cyan-gradient" x1="0%" y1="0%" x2="100%" y2="100%">
      <stop offset="0%" stop-color="#15aabf"/>
      <stop offset="100%" stop-color="#0c8599"/>
    </linearGradient>
    
    <linearGradient id="purple-gradient" x1="0%" y1="0%" x2="100%" y2="100%">
      <stop offset="0%" stop-color="#9775fa"/>
      <stop offset="100%" stop-color="#7950f2"/>
    </linearGradient>
    
    <filter id="shadow" x="-10%" y="-10%" width="120%" height="130%">
      <feDropShadow dx="0" dy="2" stdDeviation="3" flood-opacity="0.2"/>
    </filter>
    
    <filter id="glow" x="-10%" y="-10%" width="120%" height="130%">
      <feGaussianBlur stdDeviation="5" result="blur"/>
      <feComposite in="SourceGraphic" in2="blur" operator="over"/>
    </filter>
    
    <!-- 화살표 마커 정의 -->
    <marker id="blue-arrow" markerWidth="10" markerHeight="10" refX="9" refY="5" orient="auto">
      <path d="M0,0 L10,5 L0,10 Z" fill="#4263eb"/>
    </marker>
    
    <marker id="cyan-arrow" markerWidth="10" markerHeight="10" refX="9" refY="5" orient="auto">
      <path d="M0,0 L10,5 L0,10 Z" fill="#15aabf"/>
    </marker>
    
    <marker id="purple-arrow" markerWidth="10" markerHeight="10" refX="9" refY="5" orient="auto">
      <path d="M0,0 L10,5 L0,10 Z" fill="#9775fa"/>
    </marker>
  </defs>
  
  <!-- 배경 -->
  <rect width="800" height="500" fill="url(#bg-gradient)" rx="10" ry="10"/>
  
  <!-- 제목과 설명 -->
  <g id="title">
    <text x="400" y="35" font-family="Arial, sans-serif" font-size="24" font-weight="bold" text-anchor="middle" fill="#2c3e50">FallSense - 시스템 구성도</text>
    <text x="400" y="60" font-family="Arial, sans-serif" font-size="14" text-anchor="middle" fill="#5d6778">낙상·이상행동 감지 센서 기반 노인 안전관리 시스템</text>
  </g>
  
  <!-- 주체별 영역 그룹화 -->
  
  <!-- 노인/가정 영역 -->
  <g id="home-area">
    <rect x="50" y="80" width="300" height="320" fill="#e7f5ff" stroke="#74c0fc" stroke-width="2" rx="12" ry="12" filter="url(#shadow)"/>
    
    <g id="home-title">
      <rect x="50" y="80" width="300" height="40" fill="url(#blue-gradient)" rx="12" ry="12"/>
      <text x="180" y="107" font-family="Arial, sans-serif" font-size="16" font-weight="bold" text-anchor="middle" fill="#ffffff">
        <tspan>노인 가정/시설</tspan>
      </text>
      <!-- 집 아이콘 -->
      <path d="M150 100 L143 105 L143 102 L135 102 L135 108 L143 108 L143 105 L150 100 L157 105 L157 108 L165 108 L165 102 L157 102 L157 105 Z" fill="#ffffff"/>
    </g>
    
    <!-- 센서 모듈 시각화 -->
    <g id="sensor-module" transform="translate(80, 130)">
      <rect width="110" height="140" fill="#bbdefb" stroke="#4263eb" stroke-width="2" rx="8" ry="8" filter="url(#shadow)"/>
      <text x="55" y="25" font-family="Arial, sans-serif" font-size="14" font-weight="bold" text-anchor="middle" fill="#1a4fa3">센서 모듈</text>
      
      <g transform="translate(10, 35)">
        <rect width="90" height="25" fill="#e3f2fd" stroke="#90caf9" stroke-width="1" rx="4" ry="4"/>
        <text x="45" y="17" font-family="Arial, sans-serif" font-size="12" text-anchor="middle">PIR 센서</text>
        <!-- 모션 감지 아이콘 -->
        <path d="M15 13 L20 13 M15 17 L20 17" stroke="#4263eb" stroke-width="1.5" opacity="0.7">
          <animate attributeName="opacity" values="0.7;0.3;0.7" dur="2s" repeatCount="indefinite"/>
        </path>
      </g>
      
      <g transform="translate(10, 65)">
        <rect width="90" height="25" fill="#e3f2fd" stroke="#90caf9" stroke-width="1" rx="4" ry="4"/>
        <text x="45" y="17" font-family="Arial, sans-serif" font-size="12" text-anchor="middle">자이로센서</text>
        <!-- 자이로 아이콘 -->
        <path d="M15 13 A4 4 0 1 0 15 17" stroke="#4263eb" stroke-width="1.5" fill="none" opacity="0.7"/>
      </g>
      
      <g transform="translate(10, 95)">
        <rect width="90" height="25" fill="#e3f2fd" stroke="#90caf9" stroke-width="1" rx="4" ry="4"/>
        <text x="45" y="17" font-family="Arial, sans-serif" font-size="12" text-anchor="middle">압력/소리 센서</text>
        <!-- 압력/소리 아이콘 -->
        <path d="M12 13 L18 17 M12 17 L18 13" stroke="#4263eb" stroke-width="1.5" opacity="0.7"/>
      </g>
      
      <g transform="translate(10, 125)">
        <rect width="90" height="25" fill="#e3f2fd" stroke="#90caf9" stroke-width="1" rx="4" ry="4"/>
        <text x="45" y="17" font-family="Arial, sans-serif" font-size="12" text-anchor="middle">통신 모듈</text>
        <!-- 통신 아이콘 -->
        <path d="M15 13 C15 17, 15 17, 20 17" stroke="#4263eb" stroke-width="1.5" fill="none" opacity="0.7">
          <animate attributeName="opacity" values="1;0.5;1" dur="1.5s" repeatCount="indefinite"/>
        </path>
      </g>
    </g>
    
    <!-- 에지 컴퓨팅 장치 -->
    <g id="edge-device" transform="translate(210, 130)">
      <rect width="110" height="140" fill="#bbdefb" stroke="#4263eb" stroke-width="2" rx="8" ry="8" filter="url(#shadow)"/>
      <text x="55" y="25" font-family="Arial, sans-serif" font-size="14" font-weight="bold" text-anchor="middle" fill="#1a4fa3">에지 컴퓨팅</text>
      
      <g transform="translate(10, 35)">
        <rect width="90" height="25" fill="#e3f2fd" stroke="#90caf9" stroke-width="1" rx="4" ry="4"/>
        <text x="45" y="17" font-family="Arial, sans-serif" font-size="12" text-anchor="middle">데이터 수집</text>
        <!-- 데이터 수집 아이콘 -->
        <path d="M15 13 L15 17 L20 17" stroke="#4263eb" stroke-width="1.5" fill="none" opacity="0.7"/>
      </g>
      
      <g transform="translate(10, 65)">
        <rect width="90" height="25" fill="#e3f2fd" stroke="#90caf9" stroke-width="1" rx="4" ry="4"/>
        <text x="45" y="17" font-family="Arial, sans-serif" font-size="12" text-anchor="middle">낙상 감지</text>
        <!-- 낙상 감지 아이콘 -->
        <path d="M15 13 L20 17" stroke="#4263eb" stroke-width="1.5" opacity="0.7"/>
      </g>
      
      <g transform="translate(10, 95)">
        <rect width="90" height="25" fill="#e3f2fd" stroke="#90caf9" stroke-width="1" rx="4" ry="4"/>
        <text x="45" y="17" font-family="Arial, sans-serif" font-size="12" text-anchor="middle">긴급알림</text>
        <!-- 알림 아이콘 -->
        <path d="M15 13 L15 17 M15 13 A1 1 0 0 0 15 13" stroke="#4263eb" stroke-width="1.5" opacity="0.7">
          <animate attributeName="opacity" values="1;0.5;1" dur="1s" repeatCount="indefinite"/>
        </path>
      </g>
      
      <g transform="translate(10, 125)">
        <rect width="90" height="25" fill="#e3f2fd" stroke="#90caf9" stroke-width="1" rx="4" ry="4"/>
        <text x="45" y="17" font-family="Arial, sans-serif" font-size="12" text-anchor="middle">클라우드 연동</text>
        <!-- 클라우드 연동 아이콘 -->
        <path d="M15 15 A2 2 0 0 0 20 15" stroke="#4263eb" stroke-width="1.5" fill="none" opacity="0.7"/>
      </g>
    </g>
    
    <!-- 설치 위치 -->
    <g id="installation-locations" transform="translate(80, 280)">
      <rect width="240" height="100" fill="#bbdefb" stroke="#4263eb" stroke-width="2" rx="8" ry="8" filter="url(#shadow)"/>
      <text x="120" y="25" font-family="Arial, sans-serif" font-size="14" font-weight="bold" text-anchor="middle" fill="#1a4fa3">주요 설치 위치</text>
      
      <g transform="translate(10, 35)">
        <rect width="70" height="55" fill="#e3f2fd" stroke="#90caf9" stroke-width="1" rx="6" ry="6"/>
        <text x="35" y="25" font-family="Arial, sans-serif" font-size="12" font-weight="bold" text-anchor="middle" fill="#1a4fa3">화장실</text>
        <text x="35" y="45" font-family="Arial, sans-serif" font-size="10" text-anchor="middle" fill="#1a4fa3">낙상 위험↑</text>
        <!-- 물방울 아이콘 -->
        <path d="M35 10 L35 16 A4 4 0 1 0 35 16 Z" fill="#4263eb" opacity="0.7"/>
      </g>
      
      <g transform="translate(85, 35)">
        <rect width="70" height="55" fill="#e3f2fd" stroke="#90caf9" stroke-width="1" rx="6" ry="6"/>
        <text x="35" y="25" font-family="Arial, sans-serif" font-size="12" font-weight="bold" text-anchor="middle" fill="#1a4fa3">침실</text>
        <text x="35" y="45" font-family="Arial, sans-serif" font-size="10" text-anchor="middle" fill="#1a4fa3">수면패턴</text>
        <!-- 침대 아이콘 -->
        <path d="M30 10 L40 10 L40 14 L30 14 Z" fill="#4263eb" opacity="0.7"/>
      </g>
      
      <g transform="translate(160, 35)">
        <rect width="70" height="55" fill="#e3f2fd" stroke="#90caf9" stroke-width="1" rx="6" ry="6"/>
        <text x="35" y="25" font-family="Arial, sans-serif" font-size="12" font-weight="bold" text-anchor="middle" fill="#1a4fa3">주방/거실</text>
        <text x="35" y="45" font-family="Arial, sans-serif" font-size="10" text-anchor="middle" fill="#1a4fa3">활동 감지</text>
        <!-- 소파 아이콘 -->
        <path d="M30 10 L40 10 L39 15 L31 15 Z" fill="#4263eb" opacity="0.7"/>
      </g>
    </g>
  </g>
  
  <!-- 클라우드 서버 영역 -->
  <g id="cloud-server">
    <rect x="400" y="80" width="150" height="320" fill="#e3fafc" stroke="#66d9e8" stroke-width="2" rx="12" ry="12" filter="url(#shadow)"/>
    
    <g id="cloud-title">
      <rect x="400" y="80" width="150" height="40" fill="url(#cyan-gradient)" rx="12" ry="12"/>
      <text x="475" y="107" font-family="Arial, sans-serif" font-size="16" font-weight="bold" text-anchor="middle" fill="#ffffff">
        <tspan>클라우드 서버</tspan>
      </text>
      <!-- 클라우드 아이콘 -->
      <path d="M450 100 A8 4 0 0 1 460 100 A4 4 0 0 1 465 102 A8 4 0 0 1 455 102 A4 4 0 0 1 450 100 Z" fill="#ffffff"/>
    </g>
    
    <g transform="translate(415, 130)">
      <rect width="120" height="40" fill="#99e9f2" stroke="#15aabf" stroke-width="2" rx="6" ry="6" filter="url(#shadow)"/>
      <text x="60" y="25" font-family="Arial, sans-serif" font-size="12" font-weight="bold" text-anchor="middle" fill="#0b7285">데이터 저장</text>
      <!-- 데이터베이스 아이콘 -->
      <path d="M30 20 A10 5 0 0 0 40 20 A10 5 0 0 0 30 20 Z" fill="#0b7285" opacity="0.7"/>
    </g>
    
    <g transform="translate(415, 180)">
      <rect width="120" height="40" fill="#99e9f2" stroke="#15aabf" stroke-width="2" rx="6" ry="6" filter="url(#shadow)"/>
      <text x="60" y="25" font-family="Arial, sans-serif" font-size="12" font-weight="bold" text-anchor="middle" fill="#0b7285">AI 분석 엔진</text>
      <!-- 인공지능 아이콘 -->
      <path d="M30 20 A5 5 0 0 0 30 20 M30 20 L35 25 M30 20 L25 25" stroke="#0b7285" stroke-width="1.5" opacity="0.7"/>
    </g>
    
    <g transform="translate(415, 230)">
      <rect width="120" height="40" fill="#99e9f2" stroke="#15aabf" stroke-width="2" rx="6" ry="6" filter="url(#shadow)"/>
      <text x="60" y="25" font-family="Arial, sans-serif" font-size="12" font-weight="bold" text-anchor="middle" fill="#0b7285">알림 서비스</text>
      <!-- 알림 아이콘 -->
      <path d="M30 16 L30 24 M30 16 A1 1 0 0 0 30 16" stroke="#0b7285" stroke-width="1.5" opacity="0.7">
        <animate attributeName="transform" attributeType="XML" type="rotate" from="0 30 20" to="20 30 20" dur="0.5s" repeatCount="indefinite" additive="sum" fill="freeze"/>
        <animate attributeName="transform" attributeType="XML" type="rotate" from="20 30 20" to="0 30 20" dur="0.5s" repeatCount="indefinite" additive="sum" fill="freeze"/>
      </path>
    </g>
    
    <g transform="translate(415, 280)">
      <rect width="120" height="40" fill="#99e9f2" stroke="#15aabf" stroke-width="2" rx="6" ry="6" filter="url(#shadow)"/>
      <text x="60" y="25" font-family="Arial, sans-serif" font-size="12" font-weight="bold" text-anchor="middle" fill="#0b7285">패턴 분석</text>
      <!-- 그래프 아이콘 -->
      <path d="M25 25 L30 15 L35 20 L40 10" stroke="#0b7285" stroke-width="1.5" fill="none" opacity="0.7"/>
    </g>
    
    <g transform="translate(415, 330)">
      <rect width="120" height="40" fill="#99e9f2" stroke="#15aabf" stroke-width="2" rx="6" ry="6" filter="url(#shadow)"/>
      <text x="60" y="25" font-family="Arial, sans-serif" font-size="12" font-weight="bold" text-anchor="middle" fill="#0b7285">API 서비스</text>
      <!-- API 아이콘 -->
      <path d="M25 20 L40 20 M30 15 L35 20 L30 25" stroke="#0b7285" stroke-width="1.5" opacity="0.7"/>
    </g>
  </g>
  
  <!-- 사용자 앱/웹 영역 -->
  <g id="user-apps">
    <rect x="600" y="80" width="150" height="320" fill="#f3f0ff" stroke="#cc5de8" stroke-width="2" rx="12" ry="12" filter="url(#shadow)"/>
    
    <g id="apps-title">
      <rect x="600" y="80" width="150" height="40" fill="url(#purple-gradient)" rx="12" ry="12"/>
      <text x="675" y="107" font-family="Arial, sans-serif" font-size="16" font-weight="bold" text-anchor="middle" fill="#ffffff">
        <tspan>사용자 인터페이스</tspan>
      </text>
      <!-- 앱 아이콘 -->
      <path d="M650 100 A4 4 0 0 1 654 104 A4 4 0 0 1 650 108 A4 4 0 0 1 646 104 A4 4 0 0 1 650 100 Z" fill="#ffffff"/>
    </g>
    
    <g transform="translate(615, 130)">
      <rect width="120" height="75" fill="#e5dbff" stroke="#9775fa" stroke-width="2" rx="8" ry="8" filter="url(#shadow)"/>
      <text x="60" y="25" font-family="Arial, sans-serif" font-size="14" font-weight="bold" text-anchor="middle" fill="#6741d9">보호자 모바일 앱</text>
      <text x="60" y="45" font-family="Arial, sans-serif" font-size="11" text-anchor="middle" fill="#6741d9">- 실시간 알림</text>
      <text x="60" y="65" font-family="Arial, sans-serif" font-size="11" text-anchor="middle" fill="#6741d9">- 활동 모니터링</text>
      <!-- 모바일 앱 아이콘 -->
      <rect x="30" y="20" width="10" height="16" fill="none" stroke="#6741d9" stroke-width="1" rx="1" ry="1"/>
      <circle cx="35" cy="32" r="1" fill="#6741d9"/>
    </g>
    
    <g transform="translate(615, 215)">
      <rect width="120" height="75" fill="#e5dbff" stroke="#9775fa" stroke-width="2" rx="8" ry="8" filter="url(#shadow)"/>
      <text x="60" y="25" font-family="Arial, sans-serif" font-size="14" font-weight="bold" text-anchor="middle" fill="#6741d9">복지사 웹 대시보드</text>
      <text x="60" y="45" font-family="Arial, sans-serif" font-size="11" text-anchor="middle" fill="#6741d9">- 통합 모니터링</text>
      <text x="60" y="65" font-family="Arial, sans-serif" font-size="11" text-anchor="middle" fill="#6741d9">- 건강 데이터 분석</text>
      <!-- 웹 대시보드 아이콘 -->
      <rect x="30" y="20" width="14" height="10" fill="none" stroke="#6741d9" stroke-width="1" rx="1" ry="1"/>
      <line x1="30" y1="24" x2="44" y2="24" stroke="#6741d9" stroke-width="1"/>
    </g>
    
    <g transform="translate(615, 300)">
      <rect width="120" height="75" fill="#e5dbff" stroke="#9775fa" stroke-width="2" rx="8" ry="8" filter="url(#shadow)"/>
      <text x="60" y="25" font-family="Arial, sans-serif" font-size="14" font-weight="bold" text-anchor="middle" fill="#6741d9">응급 대응 연계</text>
      <text x="60" y="45" font-family="Arial, sans-serif" font-size="11" text-anchor="middle" fill="#6741d9">- 119 자동 연결</text>
      <text x="60" y="65" font-family="Arial, sans-serif" font-size="11" text-anchor="middle" fill="#6741d9">- 복지기관 연계</text>
      <!-- 응급 아이콘 -->
      <path d="M35 20 C33 23 33 26 35 29 C37 26 37 23 35 20 Z" fill="#e03131" opacity="0.8">
        <animate attributeName="opacity" values="0.8;0.3;0.8" dur="1.5s" repeatCount="indefinite"/>
      </path>
    </g>
  </g>
  
  <!-- 데이터 흐름 시각화 -->
  <g id="data-flow">
    <!-- 센서 → 에지 컴퓨팅 -->
    <path d="M190 200 C195 200 195 200 200 200 L210 200" stroke="url(#blue-gradient)" stroke-width="3" fill="none" marker-end="url(#blue-arrow)" stroke-dasharray="4,2">
      <animate attributeName="stroke-dashoffset" from="24" to="0" dur="2s" repeatCount="indefinite"/>
    </path>
    
    <!-- 에지 컴퓨팅 → 클라우드 -->
    <path d="M320 200 C350 200, 380 200, 400 200" stroke="url(#cyan-gradient)" stroke-width="3" fill="none" marker-end="url(#cyan-arrow)" stroke-dasharray="4,2">
      <animate attributeName="stroke-dashoffset" from="24" to="0" dur="3s" repeatCount="indefinite"/>
    </path>
    
    <!-- 클라우드 → 사용자 앱/웹 -->
    <path d="M550 200 C570 200, 580 200, 600 200" stroke="url(#purple-gradient)" stroke-width="3" fill="none" marker-end="url(#purple-arrow)" stroke-dasharray="6,2">
      <animate attributeName="stroke-dashoffset" from="32" to="0" dur="2.5s" repeatCount="indefinite"/>
    </path>
  </g>
  
  <!-- 범례 -->
  <g id="legend" transform="translate(50, 420)">
    <rect width="700" height="60" fill="rgba(255,255,255,0.85)" stroke="#dee2e6" stroke-width="1" rx="8" ry="8" filter="url(#shadow)"/>
    <text x="350" y="25" font-family="Arial, sans-serif" font-size="14" font-weight="bold" text-anchor="middle" fill="#495057">데이터 흐름</text>
    
    <line x1="150" y1="40" x2="190" y2="40" stroke="#4263eb" stroke-width="3" marker-end="url(#blue-arrow)"/>
    <text x="225" y="44" font-family="Arial, sans-serif" font-size="12" fill="#495057">센서 데이터</text>
    
    <line x1="300" y1="40" x2="340" y2="40" stroke="#15aabf" stroke-width="3" stroke-dasharray="4,2" marker-end="url(#cyan-arrow)"/>
    <text x="385" y="44" font-family="Arial, sans-serif" font-size="12" fill="#495057">분석 및 처리 데이터</text>
    
    <line x1="500" y1="40" x2="540" y2="40" stroke="#9775fa" stroke-width="3" stroke-dasharray="6,2" marker-end="url(#purple-arrow)"/>
    <text x="590" y="44" font-family="Arial, sans-serif" font-size="12" fill="#495057">알림 및 정보 제공</text>
  </g>
  
  <!-- 접근성 정보 -->
  <title>FallSense 시스템 구성도</title>
  <desc>낙상·이상행동 감지 센서 기반 노인 안전관리 시스템의 구성요소를 보여주는 다이어그램입니다. 노인 가정/시설, 클라우드 서버, 사용자 인터페이스의 세 영역으로 구성되어 있습니다.</desc>
</svg>
